<?xml version="1.0" encoding="UTF-8"?>
<svg xmlns="http://www.w3.org/2000/svg" xmlns:xlink="http://www.w3.org/1999/xlink" width="100px" height="100px" viewBox="0 0 100 100" version="1.1">
<defs>
<clipPath id="clip1">
  <path d="M 16.691406 43 L 50.132812 43 L 50.132812 72.398438 L 16.691406 72.398438 Z M 16.691406 43 "/>
</clipPath>
<clipPath id="clip2">
  <path d="M 50 27.597656 L 83.289062 27.597656 L 83.289062 57 L 50 57 Z M 50 27.597656 "/>
</clipPath>
</defs>
<g id="surface1">
<g clip-path="url(#clip1)" clip-rule="nonzero">
<path style=" stroke:none;fill-rule:nonzero;fill:rgb(9.019608%,63.529412%,72.156863%);fill-opacity:1;" d="M 39.117188 63.816406 L 39.117188 67.871094 L 20.757812 59.339844 L 20.757812 56.050781 L 39.117188 47.519531 L 39.117188 51.574219 L 25.230469 57.65625 L 25.230469 57.734375 Z M 50.019531 43.011719 L 19.316406 43.011719 C 17.867188 43.011719 16.691406 44.1875 16.691406 45.636719 L 16.691406 69.753906 C 16.691406 71.203125 17.867188 72.378906 19.316406 72.378906 L 41.496094 72.378906 L 50.019531 43.011719 "/>
</g>
<g clip-path="url(#clip2)" clip-rule="nonzero">
<path style=" stroke:none;fill-rule:nonzero;fill:rgb(9.019608%,63.529412%,72.156863%);fill-opacity:1;" d="M 79.230469 44.054688 L 60.871094 52.472656 L 60.871094 48.417969 L 75.0625 42.335938 L 75.0625 42.257812 L 60.871094 36.175781 L 60.871094 32.117188 L 79.230469 40.535156 Z M 58.542969 27.613281 L 50.019531 56.976562 L 80.671875 56.976562 C 82.121094 56.976562 83.292969 55.804688 83.292969 54.351562 L 83.292969 30.238281 C 83.292969 28.789062 82.121094 27.613281 80.671875 27.613281 L 58.542969 27.613281 "/>
</g>
</g>
</svg>
