<svg xmlns="http://www.w3.org/2000/svg" width="375" viewBox="0 0 375 375" height="375" version="1.0"><defs><clipPath id="a"><path d="M 62.589844 161 L 188 161 L 188 271.496094 L 62.589844 271.496094 Z M 62.589844 161"/></clipPath><clipPath id="b"><path d="M 187 103.496094 L 312.339844 103.496094 L 312.339844 214 L 187 214 Z M 187 103.496094"/></clipPath></defs><g clip-path="url(#a)"><path fill="#17A2B8" d="M 146.683594 239.3125 L 146.683594 254.519531 L 77.839844 222.527344 L 77.839844 210.1875 L 146.683594 178.195312 L 146.683594 193.402344 L 94.621094 216.210938 L 94.621094 216.5 Z M 187.570312 161.296875 L 72.441406 161.296875 C 67.003906 161.296875 62.597656 165.703125 62.597656 171.144531 L 62.597656 261.570312 C 62.597656 267.007812 67.003906 271.414062 72.441406 271.414062 L 155.609375 271.414062 L 187.570312 161.296875"/></g><g clip-path="url(#b)"><path fill="#17A2B8" d="M 297.113281 165.207031 L 228.269531 196.769531 L 228.269531 181.5625 L 281.480469 158.753906 L 281.480469 158.464844 L 228.269531 135.652344 L 228.269531 120.445312 L 297.113281 152.007812 Z M 219.53125 103.550781 L 187.570312 213.667969 L 302.515625 213.667969 C 307.949219 213.667969 312.355469 209.261719 312.355469 203.820312 L 312.355469 113.394531 C 312.355469 107.957031 307.949219 103.550781 302.515625 103.550781 L 219.53125 103.550781"/></g></svg>